<svg width="368" height="743" viewBox="0 0 368 743" fill="none" xmlns="http://www.w3.org/2000/svg">
<path d="M300.781 50.1301H210.674C199.628 50.1301 190.674 59.0845 190.674 70.1301V142.722C190.674 146.734 191.88 150.654 194.137 153.971L260.848 252.045C264.571 257.519 270.763 260.796 277.384 260.796H321.09C332.135 260.796 341.09 251.842 341.09 240.796V199.416C341.09 192.905 345.14 187.081 351.244 184.816C359.969 181.578 363.925 171.461 359.711 163.163L341.733 127.764C341.305 126.92 340.937 126.047 340.632 125.151L319.715 63.6868C316.956 55.5808 309.344 50.1301 300.781 50.1301Z" fill="#E6CF00"/>
<path d="M308.539 217.8C308.539 216.141 309.835 214.771 311.491 214.679L336.255 213.304C338.705 213.167 340.765 215.117 340.765 217.57C340.765 219.992 338.754 221.93 336.334 221.841L311.548 220.923C309.869 220.86 308.539 219.481 308.539 217.8Z" fill="#FFFACC"/>
<path d="M313.91 43.8638H190.674L177.984 20.1495C175.489 15.4864 178.868 9.84692 184.156 9.84692H318.116C323.167 9.84692 326.555 15.0331 324.526 19.6586L313.91 43.8638Z" fill="#E6CF00"/>
<path d="M317.789 50.1301L323.16 70.7193H244.968C235.568 70.7193 227.437 77.2649 225.429 86.4477L213.216 142.312C212.909 143.715 212.755 145.147 212.755 146.583V240.796C212.755 251.842 203.8 260.796 192.755 260.796H133.442C120.124 260.796 110.526 248.022 114.233 235.23L139.973 146.39C140.352 145.082 140.864 143.816 141.501 142.611L190.375 50.1301H317.789Z" fill="#FFFACC"/>
<path fill-rule="evenodd" clip-rule="evenodd" d="M301.99 110.406C301.69 110.406 301.405 110.541 301.215 110.774L297.105 115.814C296.427 116.646 297.357 117.816 298.321 117.344L301.307 115.879C301.444 115.812 301.595 115.777 301.748 115.777H326.144C327.627 115.777 328.83 114.574 328.83 113.091C328.83 111.608 327.627 110.406 326.144 110.406H301.99Z" fill="#FFFACC"/>
<path d="M263.183 266.465L217.827 202.012V314.805H299.289L290.635 266.465H263.183Z" fill="#998A00"/>
<path d="M210.666 324.652V291.232H164.415L213.277 454.155H262.139H311.001L359.863 291.232H301.974L308.241 324.652H210.666Z" fill="#E6CF00"/>
<path d="M66.5412 692.87H156.649C167.695 692.87 176.649 683.915 176.649 672.87V600.277C176.649 596.265 175.442 592.346 173.186 589.029L106.475 490.955C102.751 485.481 96.5591 482.204 89.9381 482.204H46.2329C35.1872 482.204 26.2329 491.158 26.2329 502.204V543.583C26.2329 550.094 22.1823 555.918 16.078 558.184C7.35327 561.422 3.39729 571.539 7.61131 579.837L25.5893 615.236C26.0178 616.08 26.3859 616.953 26.6908 617.849L47.6076 679.313C50.3661 687.419 57.9787 692.87 66.5412 692.87Z" fill="#E6CF00"/>
<path d="M58.7836 525.2C58.7836 526.859 57.4878 528.228 55.8318 528.32L31.0674 529.696C28.6179 529.832 26.5571 527.883 26.5571 525.429C26.5571 523.007 28.5681 521.069 30.9885 521.159L55.7741 522.077C57.4539 522.139 58.7836 523.519 58.7836 525.2Z" fill="#FFFACC"/>
<path d="M53.4124 699.136H176.649L189.338 722.85C191.833 727.513 188.455 733.153 183.166 733.153H49.2066C44.1557 733.153 40.7673 727.967 42.7961 723.341L53.4124 699.136Z" fill="#E6CF00"/>
<path d="M49.5333 692.87L44.1622 672.28H122.355C131.754 672.28 139.886 665.735 141.893 656.552L154.106 600.688C154.413 599.285 154.568 597.853 154.568 596.417L154.568 502.204C154.568 491.158 163.522 482.204 174.568 482.204H233.88C247.199 482.204 256.797 494.977 253.09 507.77L227.349 596.61C226.97 597.918 226.458 599.184 225.822 600.389L176.947 692.87H49.5333Z" fill="#FFFACC"/>
<path fill-rule="evenodd" clip-rule="evenodd" d="M65.332 632.594C65.6326 632.594 65.9171 632.459 66.1071 632.226L70.2172 627.186C70.8954 626.354 69.9653 625.183 69.0017 625.656L66.0153 627.121C65.8782 627.188 65.7276 627.223 65.5749 627.223H41.1783C39.6951 627.223 38.4928 628.426 38.4928 629.909C38.4928 631.392 39.6951 632.594 41.1783 632.594H65.332Z" fill="#FFFACC"/>
<path d="M104.139 476.534L149.495 540.987V428.195H68.0337L76.6871 476.534H104.139Z" fill="#998A00"/>
<path d="M156.657 418.347V451.768H202.908L154.046 288.845H105.184H56.3217L7.45979 451.768H65.3482L59.0819 418.347H156.657Z" fill="#E6CF00"/>
</svg>
