<svg width="318" height="758" viewBox="0 0 318 758" fill="none" xmlns="http://www.w3.org/2000/svg">
<path fill-rule="evenodd" clip-rule="evenodd" d="M161.096 465.136V529.509C161.096 530.379 160.061 530.834 159.42 530.245L110.38 485.22C110.257 485.107 110.107 485.026 109.944 484.986L61.246 472.952C60.7995 472.841 60.4859 472.441 60.4859 471.981V460.5L109.079 420.524L115.215 425.589L160.745 464.375C160.968 464.565 161.096 464.843 161.096 465.136Z" fill="#998A00"/>
<path d="M52.4033 707.647H177.266V608.5L100.873 496.132H26.3245V563.553C26.3245 563.553 -2.9637 570.956 0.245667 582.325C3.45503 593.694 26.3245 630.973 26.3245 630.973L52.4033 707.647Z" fill="#E6CF00"/>
<path d="M54.9251 745.379C52.376 749.438 46.1292 747.931 45.71 743.157L43.596 719.077C43.3394 716.154 45.6428 713.639 48.5768 713.639H65.8143C69.7463 713.639 72.1397 717.969 70.0485 721.299L54.9251 745.379Z" fill="#E6CF00"/>
<path d="M171.448 745.379C173.997 749.438 180.244 747.931 180.663 743.157L182.777 719.077C183.034 716.154 180.73 713.639 177.796 713.639H160.559C156.627 713.639 154.233 717.969 156.324 721.299L171.448 745.379Z" fill="#E6CF00"/>
<path d="M136.767 744.581C135.2 749.034 128.902 749.034 127.335 744.581L118.577 719.7C117.432 716.448 119.845 713.04 123.293 713.04H140.809C144.257 713.04 146.67 716.448 145.525 719.7L136.767 744.581Z" fill="#E6CF00"/>
<path d="M99.0385 744.581C97.471 749.034 91.1732 749.034 89.6058 744.581L80.848 719.7C79.7032 716.448 82.1164 713.04 85.5644 713.04H103.08C106.528 713.04 108.941 716.448 107.796 719.7L99.0385 744.581Z" fill="#E6CF00"/>
<path d="M147.202 678.444C128.613 695.617 76.3185 692.012 51.5644 689.174C45.1698 688.441 39.7661 694.227 41.154 700.512C42.0744 704.68 45.7689 707.647 50.0373 707.647H173.254C178.777 707.647 183.254 703.17 183.254 697.647L183.254 566.637C183.254 563.895 182.129 561.274 180.141 559.386L109.87 492.641C108.638 491.472 107.129 490.635 105.485 490.21L63.8368 479.45C62.0792 478.995 60.2311 479.028 58.4907 479.545L27.5171 488.735C23.2727 489.994 20.3616 493.894 20.3616 498.322V504.741C20.3616 511.209 26.4077 516.074 32.7943 515.047C54.111 511.62 97.2244 507.715 116.78 527.59C143.309 554.554 188.781 640.032 147.202 678.444Z" fill="#FFFACC"/>
<rect x="76.6554" y="542.27" width="50.3051" height="5.99194" rx="2.99597" transform="rotate(-180 76.6554 542.27)" fill="#FFFACC"/>
<path d="M26.3503 553.655V563.242C26.3503 563.242 78.5957 567.49 87.831 558.27C95.2632 550.85 94.6067 510.513 94.6067 510.513H84.942C84.942 510.513 89.6781 542.465 80.9705 550.367C72.2629 558.27 26.3503 553.655 26.3503 553.655Z" fill="#FFFACC"/>
<path d="M109.294 412.844L161.096 457.185H203.316L107.797 315.775L26.6497 453.889H60.1864L109.294 412.844Z" fill="#FFFACC"/>
<path d="M62.5344 655.123C69.873 653.762 77.3168 649.219 81.1875 646.343C82.0623 645.693 82.5881 644.526 82.035 643.587C80.4588 640.911 76.6912 646.2 70.0677 647.429C64.8205 648.402 48.7421 647.558 41.1779 646.233C39.5843 645.954 37.9228 646.799 37.3757 648.322L36.526 650.687C35.899 652.432 36.9863 654.318 38.822 654.579C45.3267 655.502 55.6151 656.406 62.5344 655.123Z" fill="#F2E6FF"/>
<path fill-rule="evenodd" clip-rule="evenodd" d="M153.011 292.843V228.471C153.011 227.601 154.046 227.146 154.688 227.735L203.727 272.76C203.851 272.873 204.001 272.954 204.163 272.994L252.861 285.028C253.308 285.139 253.622 285.539 253.622 285.999V297.48L205.028 337.456L198.893 332.391L153.363 293.605C153.14 293.415 153.011 293.136 153.011 292.843Z" fill="#998A00"/>
<path d="M261.704 50.3323H136.842V149.48L213.234 261.848H287.783V194.427C287.783 194.427 317.071 187.024 313.862 175.655C310.652 164.286 287.783 127.007 287.783 127.007L261.704 50.3323Z" fill="#E6CF00"/>
<path d="M259.182 12.6007C261.731 8.542 267.978 10.0483 268.397 14.8227L270.511 38.903C270.768 41.8258 268.465 44.3403 265.531 44.3403H248.293C244.361 44.3403 241.968 40.0109 244.059 36.6811L259.182 12.6007Z" fill="#E6CF00"/>
<path d="M142.66 12.6007C140.111 8.542 133.864 10.0483 133.445 14.8227L131.33 38.903C131.074 41.8258 133.377 44.3403 136.311 44.3403H153.549C157.481 44.3403 159.874 40.0109 157.783 36.6811L142.66 12.6007Z" fill="#E6CF00"/>
<path d="M177.34 13.399C178.908 8.94582 185.205 8.94581 186.773 13.399L195.531 38.2794C196.675 41.5318 194.262 44.9395 190.814 44.9395H173.299C169.851 44.9395 167.438 41.5318 168.582 38.2794L177.34 13.399Z" fill="#E6CF00"/>
<path d="M215.069 13.399C216.636 8.94582 222.934 8.94581 224.502 13.399L233.259 38.2794C234.404 41.5318 231.991 44.9395 228.543 44.9395H211.028C207.58 44.9395 205.166 41.5318 206.311 38.2794L215.069 13.399Z" fill="#E6CF00"/>
<path d="M166.905 79.5357C185.494 62.3624 237.789 65.9681 262.543 68.8061C268.938 69.5392 274.341 63.753 272.953 57.4679C272.033 53.2999 268.339 50.3323 264.07 50.3323H140.853C135.33 50.3323 130.853 54.8094 130.853 60.3323V191.343C130.853 194.084 131.979 196.706 133.966 198.594L204.238 265.338C205.469 266.508 206.978 267.345 208.623 267.77L250.271 278.53C252.028 278.984 253.876 278.951 255.617 278.435L286.59 269.245C290.835 267.986 293.746 264.085 293.746 259.658V253.239C293.746 246.77 287.7 241.906 281.313 242.933C259.996 246.36 216.883 250.265 197.328 230.39C170.798 203.426 125.327 117.947 166.905 79.5357Z" fill="#FFFACC"/>
<rect x="237.452" y="215.71" width="50.3051" height="5.99194" rx="2.99597" fill="#FFFACC"/>
<path d="M287.757 204.325V194.738C287.757 194.738 235.512 190.49 226.276 199.71C218.844 207.129 219.501 247.467 219.501 247.467H229.165C229.165 247.467 224.429 215.515 233.137 207.612C241.844 199.71 287.757 204.325 287.757 204.325Z" fill="#FFFACC"/>
<path d="M204.814 345.135L153.011 300.795H110.791L206.311 442.205L287.458 304.091H253.921L204.814 345.135Z" fill="#FFFACC"/>
<path d="M251.573 102.857C244.234 104.218 236.791 108.761 232.92 111.636C232.045 112.286 231.519 113.454 232.072 114.393C233.649 117.069 237.416 111.78 244.04 110.551C249.287 109.578 265.365 110.422 272.93 111.747C274.523 112.026 276.185 111.181 276.732 109.658L277.581 107.293C278.208 105.548 277.121 103.662 275.285 103.401C268.781 102.477 258.492 101.574 251.573 102.857Z" fill="#F2E6FF"/>
</svg>
