<svg width="281" height="743" viewBox="0 0 281 743" fill="none" xmlns="http://www.w3.org/2000/svg">
<path d="M226.951 298.236C217.178 270.172 238.448 257.409 226.951 254.909C215.455 252.409 188.021 230.045 181.489 225.368C174.957 220.691 187.864 249.05 188.282 260.079C188.7 271.108 179.921 294.379 175.48 304.637C192.985 329.993 231.341 310.84 226.951 298.236Z" fill="#8000FF"/>
<path d="M173.909 312.119C207.956 335.122 223.324 315.022 227.886 306.687C228.78 305.054 230.89 304.33 232.537 305.198C248.612 313.681 260.485 313.539 268.454 311.138C271.589 310.193 277.708 314.584 276.738 317.711C264.795 356.186 229.972 458.148 201.4 440.007C176.036 423.903 133.866 334.818 125.979 317.809C125.264 316.267 125.983 314.482 127.584 313.911C136.02 310.899 160.8 303.263 173.909 312.119Z" fill="#CC99FF"/>
<path d="M224.715 69.7633C196.662 56.0076 165.664 64.3608 150.96 72.1541C149.673 72.8361 148.082 72.5726 147.134 71.4679L134.191 56.3982C132.005 53.8524 135.011 50.1845 137.936 51.8281L143.575 54.9953C145.724 56.2028 148.332 54.4459 148.02 52.0002L146.687 41.5533C146.332 38.764 149.664 37.062 151.715 38.9852L161.671 48.3199C163.522 50.0552 166.557 48.8523 166.717 46.3203L167.401 35.4816C167.573 32.7503 171.013 31.6571 172.731 33.7879L182.579 46.0053C184.154 47.9595 187.289 47.2305 187.841 44.7819L189.955 35.3977C190.635 32.3782 194.887 32.2416 195.76 35.2113L198.668 45.1085C199.364 47.4758 202.461 48.038 203.944 46.0662L211.712 35.7402C213.443 33.4379 217.109 34.6627 217.109 37.5436V46.3683C217.109 48.8951 220.042 50.29 222.002 48.6958L230.76 41.5734C233.027 39.7295 236.324 41.8857 235.544 44.702L229.127 67.8567C228.607 69.7326 226.463 70.6204 224.715 69.7633Z" fill="#B366FF"/>
<path d="M241.953 92.771H141.965L134.112 159.173C134.112 159.173 159.698 201.966 189.603 226.779C207.14 241.329 256.12 270.189 261.322 244.38C263.657 232.799 266.056 188.524 266.056 188.524C266.056 188.524 281.582 187.639 279.684 181.611C277.785 175.584 272.091 173.749 266.056 145.184C260.021 116.619 241.953 92.771 241.953 92.771Z" fill="#B366FF"/>
<path d="M143.276 80.1918C198.439 55.3548 227.162 75.0889 238.678 87.6071C241.517 90.6922 238.736 94.8707 234.553 94.6055C203.732 92.6515 170.389 106.631 163.96 110.591C153.749 116.881 163.96 182.397 183.596 231.141C196.164 254.465 221.717 325.275 202.447 332.823C184.278 339.939 140.087 345.284 119.735 340.6C117.654 340.121 116.309 338.202 116.309 336.066V169.381C116.309 169.323 116.309 169.317 116.308 169.258C116.247 167.404 114.03 93.3599 143.276 80.1918Z" fill="#F2E6FF"/>
<path d="M264.236 216.728L263.713 225.114C256.304 226.286 240.725 222.255 235.87 221.552C231.016 220.849 230.249 221.318 230.505 220.615C230.76 219.911 230.249 221.552 235.359 219.677C240.469 217.802 258.871 215.556 264.236 216.728Z" fill="#F2E6FF"/>
<path d="M242.183 132.081C237.48 131.998 231.946 133.606 228.659 134.711C227.48 135.107 227.011 136.325 228.251 136.416C231.469 136.652 238.942 134.458 242.968 135.392C247.746 136.501 253.068 140.168 256.638 139.831C257.336 139.765 257.803 139.152 257.919 138.46C258.06 137.62 257.66 136.78 256.9 136.396C253.463 134.662 247.317 132.17 242.183 132.081Z" fill="#F2E6FF"/>
<path d="M58.7544 461.012C68.5278 489.076 47.2582 501.839 58.7544 504.339C70.2506 506.839 97.6847 529.203 104.217 533.88C110.749 538.558 97.8414 510.198 97.4234 499.169C97.0053 488.141 105.784 464.869 110.226 454.611C92.7204 429.255 54.365 448.408 58.7544 461.012Z" fill="#8000FF"/>
<path d="M111.797 447.128C77.7502 424.125 62.3816 444.226 57.8197 452.561C56.926 454.193 54.8154 454.918 53.1692 454.05C37.0935 445.567 25.2206 445.709 17.2516 448.11C14.1168 449.054 7.99745 444.664 8.96801 441.537C20.9107 403.062 55.7339 301.1 84.3059 319.241C109.67 335.345 151.84 424.43 159.727 441.439C160.442 442.981 159.723 444.766 158.122 445.337C149.686 448.348 124.905 455.985 111.797 447.128Z" fill="#CC99FF"/>
<path d="M60.9907 689.484C89.0433 703.24 120.042 694.887 134.746 687.094C136.032 686.412 137.623 686.675 138.572 687.78L151.515 702.85C153.701 705.395 150.695 709.063 147.769 707.42L142.131 704.253C139.982 703.045 137.374 704.802 137.686 707.248L139.018 717.695C139.374 720.484 136.042 722.186 133.991 720.263L124.035 710.928C122.184 709.193 119.148 710.395 118.989 712.928L118.305 723.766C118.132 726.497 114.693 727.591 112.975 725.46L103.127 713.243C101.552 711.288 98.4163 712.017 97.8647 714.466L95.7506 723.85C95.0704 726.87 90.8182 727.006 89.9457 724.037L87.0374 714.139C86.3418 711.772 83.245 711.21 81.7617 713.182L73.9941 723.508C72.2623 725.81 68.5967 724.585 68.5967 721.704V712.879C68.5967 710.353 65.6642 708.958 63.7039 710.552L54.9461 717.674C52.6788 719.518 49.3817 717.362 50.1622 714.546L56.5786 691.391C57.0984 689.515 59.243 688.627 60.9907 689.484Z" fill="#B366FF"/>
<path d="M43.753 666.477H143.741L151.593 600.074C151.593 600.074 126.008 557.282 96.1027 532.469C78.5655 517.919 29.5857 489.059 24.3836 514.868C22.0491 526.449 19.6496 570.724 19.6496 570.724C19.6496 570.724 4.12323 571.609 6.02196 577.637C7.92067 583.664 13.6147 585.499 19.6496 614.064C25.6845 642.629 43.753 666.477 43.753 666.477Z" fill="#B366FF"/>
<path d="M142.43 679.056C87.2668 703.893 58.5433 684.159 47.0272 671.641C44.1891 668.556 46.9696 664.377 51.1532 664.642C81.9741 666.596 115.317 652.616 121.746 648.656C131.957 642.367 121.746 576.851 102.11 528.107C89.5422 504.783 63.9887 433.973 83.2585 426.425C101.427 419.309 145.618 413.964 165.971 418.648C168.052 419.127 169.397 421.046 169.397 423.182L169.397 589.866C169.397 589.925 169.396 589.931 169.398 589.989C169.458 591.844 171.676 665.888 142.43 679.056Z" fill="#F2E6FF"/>
<path d="M21.4693 542.52L21.9929 534.134C29.402 532.962 44.9811 536.992 49.8354 537.696C54.6898 538.399 55.4563 537.93 55.2008 538.633C54.9453 539.336 55.4563 537.696 50.3464 539.571C45.2366 541.446 26.8345 543.692 21.4693 542.52Z" fill="#F2E6FF"/>
<path d="M43.5231 627.167C48.2262 627.249 53.7593 625.642 57.0466 624.537C58.2252 624.141 58.6943 622.923 57.4543 622.832C54.2364 622.596 46.7633 624.79 42.7376 623.855C37.9599 622.747 32.6375 619.08 29.0676 619.417C28.3696 619.482 27.9027 620.096 27.7869 620.788C27.6461 621.628 28.0456 622.468 28.8059 622.852C32.2428 624.586 38.3888 627.078 43.5231 627.167Z" fill="#F2E6FF"/>
</svg>
