<svg width="281" height="743" viewBox="0 0 281 743" fill="none" xmlns="http://www.w3.org/2000/svg">
<path d="M226.951 298.236C217.178 270.172 238.447 257.409 226.951 254.909C215.455 252.409 188.021 230.045 181.489 225.368C174.957 220.691 187.864 249.05 188.282 260.079C188.7 271.108 179.921 294.379 175.48 304.637C192.985 329.993 231.341 310.84 226.951 298.236Z" fill="#998A00"/>
<path d="M173.909 312.119C207.956 335.122 223.324 315.022 227.886 306.687C228.78 305.054 230.89 304.33 232.537 305.198C248.612 313.681 260.485 313.539 268.454 311.138C271.589 310.193 277.708 314.584 276.738 317.711C264.795 356.186 229.972 458.148 201.4 440.007C176.036 423.903 133.866 334.818 125.979 317.809C125.264 316.267 125.983 314.482 127.584 313.911C136.02 310.899 160.8 303.263 173.909 312.119Z" fill="#E6CF00"/>
<path d="M224.715 69.7633C196.662 56.0076 165.664 64.3608 150.96 72.1541C149.673 72.8361 148.082 72.5726 147.134 71.4679L134.191 56.3982C132.005 53.8524 135.011 50.1845 137.936 51.8281L143.575 54.9953C145.724 56.2028 148.332 54.4459 148.02 52.0002L146.687 41.5533C146.332 38.764 149.664 37.062 151.715 38.9852L161.671 48.3199C163.522 50.0552 166.557 48.8523 166.717 46.3203L167.401 35.4816C167.573 32.7503 171.013 31.6571 172.731 33.7879L182.579 46.0053C184.154 47.9595 187.289 47.2305 187.841 44.7819L189.955 35.3977C190.635 32.3782 194.887 32.2416 195.76 35.2113L198.668 45.1085C199.364 47.4758 202.461 48.038 203.944 46.0662L211.712 35.7402C213.443 33.4379 217.109 34.6627 217.109 37.5436V46.3683C217.109 48.8951 220.042 50.29 222.002 48.6958L230.76 41.5734C233.027 39.7295 236.324 41.8857 235.544 44.702L229.127 67.8567C228.607 69.7326 226.463 70.6204 224.715 69.7633Z" fill="#E6CF00"/>
<path d="M241.953 92.771H141.965L134.112 159.173C134.112 159.173 159.698 201.966 189.603 226.779C207.14 241.329 256.12 270.189 261.322 244.38C263.657 232.799 266.056 188.524 266.056 188.524C266.056 188.524 281.582 187.639 279.684 181.611C277.785 175.584 272.091 173.749 266.056 145.184C260.021 116.619 241.953 92.771 241.953 92.771Z" fill="#E6CF00"/>
<path d="M143.276 80.1918C198.439 55.3548 227.162 75.0889 238.678 87.6071C241.517 90.6922 238.736 94.8707 234.553 94.6055C203.732 92.6515 170.389 106.631 163.96 110.591C153.749 116.881 163.96 182.397 183.596 231.141C196.164 254.465 221.717 325.275 202.447 332.823C184.278 339.939 140.087 345.284 119.735 340.6C117.654 340.121 116.309 338.202 116.309 336.066V169.381C116.309 169.323 116.309 169.317 116.308 169.258C116.247 167.404 114.03 93.3599 143.276 80.1918Z" fill="#FFFACC"/>
<path d="M264.236 216.728L263.713 225.114C256.304 226.286 240.725 222.255 235.87 221.552C231.016 220.849 230.249 221.318 230.505 220.615C230.76 219.911 230.249 221.552 235.359 219.677C240.469 217.802 258.871 215.556 264.236 216.728Z" fill="#FFFACC"/>
<path d="M242.183 132.081C237.48 131.998 231.946 133.606 228.659 134.711C227.48 135.107 227.011 136.325 228.251 136.416C231.469 136.652 238.942 134.458 242.968 135.392C247.746 136.501 253.068 140.168 256.638 139.831C257.336 139.765 257.803 139.152 257.919 138.46C258.06 137.62 257.66 136.78 256.9 136.396C253.463 134.662 247.317 132.17 242.183 132.081Z" fill="#F2E6FF"/>
<path d="M58.7562 461.013C68.5296 489.077 47.2601 501.841 58.7562 504.34C70.2524 506.84 97.6865 529.204 104.218 533.882C110.75 538.559 97.8433 510.199 97.4252 499.171C97.0072 488.142 105.786 464.87 110.228 454.613C92.7222 429.257 54.3668 448.409 58.7562 461.013Z" fill="#998A00"/>
<path d="M111.799 447.13C77.752 424.127 62.3834 444.228 57.8215 452.562C56.9278 454.195 54.8171 454.92 53.171 454.051C37.0953 445.568 25.2224 445.711 17.2534 448.112C14.1186 449.056 7.99924 444.665 8.96982 441.538C20.9124 403.064 55.7357 301.101 84.3076 319.242C109.672 335.347 151.842 424.432 159.729 441.441C160.444 442.983 159.724 444.767 158.124 445.339C149.688 448.35 124.907 455.987 111.799 447.13Z" fill="#E6CF00"/>
<path d="M60.9925 689.486C89.0451 703.242 120.044 694.889 134.747 687.095C136.034 686.413 137.625 686.677 138.574 687.782L151.516 702.851C153.703 705.397 150.697 709.065 147.771 707.421L142.133 704.254C139.983 703.047 137.376 704.804 137.688 707.249L139.02 717.696C139.376 720.485 136.044 722.188 133.992 720.264L124.036 710.93C122.186 709.194 119.15 710.397 118.99 712.929L118.307 723.768C118.134 726.499 114.694 727.592 112.977 725.462L103.129 713.244C101.554 711.29 98.4181 712.019 97.8665 714.468L95.7524 723.852C95.0722 726.871 90.82 727.008 89.9474 724.038L87.0392 714.141C86.3436 711.774 83.2467 711.212 81.7635 713.183L73.9959 723.509C72.2641 725.812 68.5985 724.587 68.5985 721.706V712.881C68.5985 710.354 65.666 708.959 63.7057 710.554L54.9479 717.676C52.6806 719.52 49.3835 717.364 50.164 714.548L56.5804 691.393C57.1002 689.517 59.2448 688.629 60.9925 689.486Z" fill="#E6CF00"/>
<path d="M43.7548 666.479H143.743L151.595 600.076C151.595 600.076 126.01 557.284 96.1045 532.471C78.5674 517.92 29.5875 489.06 24.3854 514.869C22.051 526.451 19.6515 570.725 19.6515 570.725C19.6515 570.725 4.12509 571.611 6.02382 577.638C7.92253 583.666 13.6166 585.5 19.6515 614.066C25.6863 642.631 43.7548 666.479 43.7548 666.479Z" fill="#E6CF00"/>
<path d="M142.431 679.058C87.2686 703.895 58.5451 684.161 47.029 671.642C44.1909 668.557 46.9714 664.379 51.155 664.644C81.9759 666.598 115.319 652.618 121.748 648.658C131.959 642.369 121.748 576.852 102.111 528.108C89.544 504.784 63.9904 433.974 83.2603 426.427C101.429 419.311 145.62 413.965 165.972 418.65C168.054 419.129 169.399 421.048 169.399 423.184L169.399 589.868C169.399 589.926 169.398 589.933 169.4 589.991C169.46 591.846 171.678 665.89 142.431 679.058Z" fill="#FFFACC"/>
<path d="M21.4711 542.522L21.9947 534.136C29.4038 532.964 44.9829 536.994 49.8372 537.697C54.6916 538.401 55.4581 537.932 55.2026 538.635C54.9471 539.338 55.4581 537.697 50.3482 539.573C45.2384 541.448 26.8363 543.694 21.4711 542.522Z" fill="#FFFACC"/>
<path d="M43.525 627.169C48.228 627.251 53.7611 625.643 57.0485 624.539C58.2271 624.143 58.6961 622.925 57.4561 622.834C54.2383 622.598 46.7651 624.791 42.7395 623.857C37.9617 622.748 32.6393 619.082 29.0694 619.418C28.3714 619.484 27.9046 620.098 27.7887 620.789C27.6479 621.629 28.0474 622.47 28.8077 622.853C32.2447 624.587 38.3907 627.079 43.525 627.169Z" fill="#F2E6FF"/>
</svg>
